HIERARCHY
ROOT SpineBase
{
  OFFSET 0.000000 0.000000 0.000000
  CHANNELS 6 Xposition Yposition Zposition Zrotation Xrotation Yrotation
  JOINT SpineMid
  {
    OFFSET -0.000000 29.465419 0.000000
    CHANNELS 3 Zrotation Xrotation Yrotation
    JOINT SpineShoulder
    {
      OFFSET -0.012829 21.978191 -0.701396
      CHANNELS 3 Zrotation Xrotation Yrotation
      JOINT Neck
      {
        OFFSET 0.003171 7.297915 -0.530109
        CHANNELS 3 Zrotation Xrotation Yrotation
        JOINT Head
        {
          OFFSET 0.732063 10.197961 6.477546
          CHANNELS 3 Zrotation Xrotation Yrotation
          End Site
          {
            OFFSET 0 0 0
          }
        }
      }
      JOINT ShoulderLeft
      {
        OFFSET -8.573567 -5.093939 -6.907065
        CHANNELS 3 Zrotation Xrotation Yrotation
        JOINT ElbowLeft
        {
          OFFSET -4.810263 -24.014329 -2.073422
          CHANNELS 3 Zrotation Xrotation Yrotation
          JOINT WristLeft
          {
            OFFSET -6.189091 -20.651062 0.883953
            CHANNELS 3 Zrotation Xrotation Yrotation
            JOINT HandLeft
            {
              OFFSET -0.933799 -6.919123 1.181692
              CHANNELS 3 Zrotation Xrotation Yrotation
              JOINT HandTipLeft
              {
                OFFSET -1.404482 -6.778357 -0.685512
                CHANNELS 3 Zrotation Xrotation Yrotation
                End Site
                {
                  OFFSET 0 0 0
                }
              }
              JOINT ThumbLeft
              {
                OFFSET -3.223695 1.581341 -1.136034
                CHANNELS 3 Zrotation Xrotation Yrotation
                End Site
                {
                  OFFSET 0 0 0
                }
              }
            }
          }
        }
      }
      JOINT ShoulderRight
      {
        OFFSET 14.111262 -5.140169 4.966939
        CHANNELS 3 Zrotation Xrotation Yrotation
        JOINT ElbowRight
        {
          OFFSET 1.278780 -23.361867 6.085136
          CHANNELS 3 Zrotation Xrotation Yrotation
          JOINT WristRight
          {
            OFFSET 0.386310 -22.161589 4.831762
            CHANNELS 3 Zrotation Xrotation Yrotation
            JOINT HandRight
            {
              OFFSET -1.402583 -8.009330 1.464929
              CHANNELS 3 Zrotation Xrotation Yrotation
              JOINT HandTipRight
              {
                OFFSET 0.388070 -5.005621 -0.390101
                CHANNELS 3 Zrotation Xrotation Yrotation
                End Site
                {
                  OFFSET 0 0 0
                }
              }
              JOINT ThumbRight
              {
                OFFSET -0.311804 0.973648 -2.361655
                CHANNELS 3 Zrotation Xrotation Yrotation
                End Site
                {
                  OFFSET 0 0 0
                }
              }
            }
          }
        }
      }
    }
  }
  JOINT HipLeft
  {
    OFFSET -4.012682 1.905284 -4.645223
    CHANNELS 3 Zrotation Xrotation Yrotation
    JOINT KneeLeft
    {
      OFFSET 0.463843 -36.650531 -3.449893
      CHANNELS 3 Zrotation Xrotation Yrotation
      JOINT AnkleLeft
      {
        OFFSET -1.944326 -33.656145 -6.224542
        CHANNELS 3 Zrotation Xrotation Yrotation
        JOINT FootLeft
        {
          OFFSET 1.210643 -4.572728 -4.550508
          CHANNELS 3 Zrotation Xrotation Yrotation
          End Site
          {
            OFFSET 0 0 0
          }
        }
      }
    }
  }
  JOINT HipRight
  {
    OFFSET 4.622560 0.460220 -1.230559
    CHANNELS 3 Zrotation Xrotation Yrotation
    JOINT KneeRight
    {
      OFFSET 3.514630 -38.816472 1.543525
      CHANNELS 3 Zrotation Xrotation Yrotation
      JOINT AnkleRight
      {
        OFFSET 0.839888 -29.069432 -2.629746
        CHANNELS 3 Zrotation Xrotation Yrotation
        JOINT FootRight
        {
          OFFSET -4.528190 -6.485726 -2.099147
          CHANNELS 3 Zrotation Xrotation Yrotation
          End Site
          {
            OFFSET 0 0 0
          }
        }
      }
    }
  }
}
MOTION
Frames: 9
Frame Time: 0.033333
-28.043216 73.911410 267.802782 0.000000 0.000000 -21.575499 -0.000000 0.000000 21.575499 -0.000000 0.000000 0.000000 -0.000000 0.000000 0.000000 0.000000 0.000000 0.000000 -0.000000 0.000000 0.000000 -0.000000 0.000000 0.000000 -0.000000 0.000000 0.000000 -0.000000 0.000000 0.000000 0.000000 0.000000 0.000000 0.000000 0.000000 0.000000 -0.000000 0.000000 0.000000 -0.000000 0.000000 0.000000 -0.000000 0.000000 0.000000 -0.000000 0.000000 0.000000 0.000000 0.000000 0.000000 0.000000 0.000000 0.000000 -0.000000 0.000000 21.575499 -0.000000 0.000000 0.000000 -0.000000 0.000000 0.000000 0.000000 0.000000 0.000000 -0.000000 0.000000 21.575499 -0.000000 0.000000 0.000000 -0.000000 0.000000 0.000000 0.000000 0.000000 0.000000
-27.974664 73.867628 268.125997 0.093900 -0.164776 -21.694331 -0.148159 0.118394 21.694620 -0.000000 0.000000 0.000000 -0.000000 0.000000 0.000000 0.000000 0.000000 0.000000 -0.000000 0.000000 0.000000 -0.000000 0.000000 0.000000 1.068976 -1.201545 0.355756 -0.304100 -0.581450 -0.044447 0.000000 0.000000 0.000000 0.000000 0.000000 0.000000 -0.000000 0.000000 0.000000 -0.000000 0.000000 0.000000 -0.000000 0.000000 0.000000 -0.000000 0.000000 0.000000 0.000000 0.000000 0.000000 0.000000 0.000000 0.000000 -0.148159 0.118394 21.694620 -0.000000 0.000000 0.000000 2.954818 2.077915 -2.384839 0.000000 0.000000 0.000000 -0.148159 0.118394 21.694620 -0.000000 0.000000 0.000000 11.232466 13.986783 -15.196372 0.000000 0.000000 0.000000
-27.912500 73.828476 268.417965 0.170429 -0.305205 -21.793478 -0.271561 0.220116 21.794453 -0.000000 0.000000 0.000000 -0.000000 0.000000 0.000000 0.000000 0.000000 0.000000 -0.000000 0.000000 0.000000 -0.277931 -0.750075 0.210871 2.160253 -1.386368 0.405054 -0.666051 -1.058099 -0.045560 0.000000 0.000000 0.000000 0.000000 0.000000 0.000000 -0.000000 0.000000 0.000000 -0.000000 0.000000 0.000000 -0.000000 0.000000 0.000000 -0.000000 0.000000 0.000000 0.000000 0.000000 0.000000 0.000000 0.000000 0.000000 -0.271561 0.220116 21.794453 -0.000000 0.000000 0.000000 5.228631 3.995080 -4.135768 0.000000 0.000000 0.000000 -0.271561 0.220116 21.794453 -0.000000 0.000000 0.000000 24.869769 23.204377 -31.805718 0.000000 0.000000 0.000000
-27.856724 73.793955 268.678686 0.229518 -0.421170 -21.872427 -0.369904 0.305343 21.874256 -0.000000 0.000000 0.000000 0.639150 -0.532067 -0.366042 0.000000 0.000000 0.000000 -0.000000 0.000000 0.000000 -0.318940 -1.061211 0.301075 2.771588 -1.748061 0.504510 -1.046557 -1.504595 0.000987 0.000000 0.000000 0.000000 0.000000 0.000000 0.000000 -0.302698 0.821321 -0.031781 0.303185 -0.821141 0.036123 -0.000000 0.000000 0.000000 -0.000000 0.000000 0.000000 0.000000 0.000000 0.000000 0.000000 0.000000 0.000000 -1.174893 0.849403 21.943747 0.543416 -0.805392 -0.057560 6.859185 5.826624 -5.284115 0.000000 0.000000 0.000000 -1.049685 1.021402 21.950797 0.362889 -0.918203 -0.065762 36.384888 27.064355 -45.236499 0.000000 0.000000 0.000000
-27.807336 73.764064 268.908159 0.271117 -0.512585 -21.930732 -0.442949 0.374225 21.933391 -0.000000 0.000000 0.000000 0.761337 -0.602461 -0.438012 0.000000 0.000000 0.000000 -0.000000 0.000000 0.000000 -0.291040 -1.324602 0.380697 3.075377 -1.906630 0.536627 -1.427769 -1.970908 0.097512 0.000000 0.000000 0.000000 0.000000 0.000000 0.000000 -0.368466 1.000606 -0.038079 0.369187 -1.000341 0.044519 -0.000000 0.000000 0.000000 -0.049187 -0.881111 -0.064897 0.000000 0.000000 0.000000 0.000000 0.000000 0.000000 -1.441439 1.066756 22.021562 0.666095 -1.016255 -0.069707 7.887998 7.626720 -5.864875 0.000000 0.000000 0.000000 -1.269368 1.264503 22.030749 0.432238 -1.135167 -0.081257 44.273901 28.160127 -54.301127 0.000000 0.000000 0.000000
-27.764335 73.738803 269.106384 0.295195 -0.579389 -21.968015 -0.490517 0.426880 21.971335 -0.000000 0.000000 0.000000 0.837997 -0.618717 -0.485265 0.000000 0.000000 0.000000 -0.000000 0.000000 0.000000 -0.192403 -1.536957 0.449348 3.073892 -1.870438 0.503802 -1.807772 -2.491211 0.244966 0.000000 0.000000 0.000000 0.000000 0.000000 0.000000 -0.416731 1.132729 -0.042541 0.417654 -1.132389 0.050788 -0.000000 0.000000 0.000000 -0.189538 -0.980286 -0.062901 0.000000 0.000000 0.000000 0.000000 0.000000 0.000000 -1.644293 1.251836 22.074948 0.598752 -0.386489 -0.097921 8.489476 8.629143 -5.769238 0.000000 0.000000 0.000000 -1.424753 1.461424 22.086287 0.476851 -1.309760 -0.094106 49.243335 28.261752 -59.979505 0.000000 0.000000 0.000000
-27.711021 73.715934 269.272786 0.272273 -0.638517 -21.892200 -0.490732 0.490939 21.895819 -0.000000 0.000000 0.000000 0.969795 -0.419555 -0.584049 0.000000 0.000000 0.000000 -0.000000 0.000000 0.000000 0.091896 -1.629129 0.493336 2.623775 -1.935177 0.459366 -1.964154 -3.247103 0.480795 0.000000 0.000000 0.000000 0.000000 0.000000 0.000000 -0.463246 1.299716 -0.044404 0.464372 -1.299314 0.054924 -0.000000 0.000000 0.000000 -0.478366 -1.043705 -0.048044 0.000000 0.000000 0.000000 0.000000 0.000000 0.000000 -1.775768 1.460211 22.013226 0.828330 -1.379960 -0.085550 10.418297 16.688978 -6.384901 0.000000 0.000000 0.000000 -1.493090 1.630836 22.024030 0.226030 -0.635929 -0.060294 51.852366 27.631401 -62.353549 0.000000 0.000000 0.000000
-27.717680 73.704283 269.359445 0.096168 -0.695869 -21.922862 -0.349037 0.609639 21.925303 -0.000000 0.000000 0.000000 2.006259 0.198969 -1.292378 0.000000 0.000000 0.000000 -0.000000 0.000000 0.000000 0.280745 -1.763405 0.544906 1.940671 -1.601743 0.292307 -2.042436 -3.316046 0.605113 0.000000 0.000000 0.000000 0.000000 0.000000 0.000000 -0.487481 1.327762 -0.048804 0.488743 -1.327298 0.060114 -0.000000 0.000000 0.000000 -0.761077 -1.000437 -0.024924 0.000000 0.000000 0.000000 0.000000 0.000000 0.000000 -1.622736 1.633618 22.043367 0.796564 -1.426813 -0.083211 7.953259 18.295331 -3.668011 0.000000 0.000000 0.000000 -1.309448 1.803081 22.060652 -0.073349 -0.647227 -0.048604 52.489403 27.361970 -62.580441 0.000000 0.000000 0.000000
-27.688189 73.692564 269.464472 0.147909 -0.629297 -21.971237 -0.372626 0.528247 21.973767 -0.000000 0.000000 0.000000 0.830762 -0.214055 -0.511645 0.000000 0.000000 0.000000 -0.000000 0.000000 0.000000 0.534564 -1.923872 0.608901 1.100348 -0.600292 0.008384 -1.611437 -4.727669 0.924957 0.000000 0.000000 0.000000 0.000000 0.000000 0.000000 -0.424115 1.174599 -0.041947 0.425064 -1.174256 0.050650 -0.000000 0.000000 0.000000 -1.070298 -0.879034 0.007062 0.000000 0.000000 0.000000 0.000000 0.000000 0.000000 -1.718863 1.625626 22.097036 0.834896 -1.522830 -0.086868 3.370146 17.946477 0.775621 0.000000 0.000000 0.000000 -1.339241 1.785571 22.114799 -0.283367 -0.745932 -0.043371 49.787943 27.696214 -59.521521 0.000000 0.000000 0.000000
